<?xml version="1.0" encoding="UTF-8"?>
<svg width="26px" height="31px" viewBox="0 0 26 31" version="1.1" xmlns="http://www.w3.org/2000/svg" xmlns:xlink="http://www.w3.org/1999/xlink">
    <title>Account@</title>
    <g id="Design-Task" stroke="none" stroke-width="1" fill="none" fill-rule="evenodd">
        <g id="Account" transform="translate(0.000000, 0.884615)" fill="#000000" fill-rule="nonzero">
            <g id="avatar-copy">
                <path d="M12.6521739,16.1614907 C12.6832298,16.1614907 12.7142857,16.1614907 12.7515528,16.1614907 C12.7639752,16.1614907 12.7763975,16.1614907 12.7888199,16.1614907 C12.8074534,16.1614907 12.8322981,16.1614907 12.8509317,16.1614907 C14.6708075,16.1304348 16.1428571,15.4906832 17.2298137,14.2670807 C19.621118,11.5714286 19.2236025,6.95031056 19.1801242,6.50931677 C19.0248447,3.19875776 17.4596273,1.61490683 16.1677019,0.875776398 C15.2049689,0.322981366 14.0807453,0.0248447205 12.826087,0 L12.7826087,0 C12.7763975,0 12.7639752,0 12.757764,0 L12.7204969,0 C12.0310559,0 10.6770186,0.111801242 9.37888199,0.850931677 C8.07453416,1.59006211 6.48447205,3.17391304 6.32919255,6.50931677 C6.28571429,6.95031056 5.88819876,11.5714286 8.27950311,14.2670807 C9.36024845,15.4906832 10.8322981,16.1304348 12.6521739,16.1614907 Z M7.98757764,6.66459627 C7.98757764,6.64596273 7.99378882,6.62732919 7.99378882,6.61490683 C8.19875776,2.16149068 11.3602484,1.68322981 12.7142857,1.68322981 L12.7391304,1.68322981 C12.7515528,1.68322981 12.7701863,1.68322981 12.7888199,1.68322981 C14.4658385,1.72049689 17.3167702,2.40372671 17.5093168,6.61490683 C17.5093168,6.63354037 17.5093168,6.65217391 17.515528,6.66459627 C17.5217391,6.70807453 17.9565217,10.931677 15.9813665,13.1552795 C15.1987578,14.0372671 14.1552795,14.4720497 12.7826087,14.484472 C12.7701863,14.484472 12.7639752,14.484472 12.7515528,14.484472 L12.7515528,14.484472 C12.7391304,14.484472 12.7329193,14.484472 12.7204969,14.484472 C11.3540373,14.4720497 10.3043478,14.0372671 9.52795031,13.1552795 C7.55900621,10.9440994 7.98136646,6.70186335 7.98757764,6.66459627 Z" id="Shape"></path>
                <path d="M25.515528,23.826087 C25.515528,23.8198758 25.515528,23.8136646 25.515528,23.8074534 C25.515528,23.757764 25.5093168,23.7080745 25.5093168,23.6521739 C25.4720497,22.4223602 25.3913043,19.5465839 22.6956522,18.6273292 C22.6770186,18.621118 22.6521739,18.6149068 22.6335404,18.6086957 C19.8322981,17.8944099 15.4678361,14.4736831 15.4429914,14.4550495 C15.0641094,14.1879688 14.5423703,14.2811365 14.2752895,14.6600185 C14.0082088,15.0389005 14.1013765,15.5606396 14.4802585,15.8277204 C14.5858485,15.9022545 19.0931677,19.4285714 22.1863354,20.2236025 C23.6335404,20.7391304 23.7950311,22.2857143 23.8385093,23.7018634 C23.8385093,23.757764 23.8385093,23.8074534 23.8447205,23.8571429 C23.8509317,24.4161491 23.8136646,25.2795031 23.7142857,25.7763975 C22.7080745,26.3478261 18.7639752,28.3229814 12.7639752,28.3229814 C6.78881988,28.3229814 2.81987578,26.3416149 1.80745342,25.7701863 C1.70807453,25.2732919 1.66459627,24.4099379 1.67701863,23.8509317 C1.67701863,23.8012422 1.68322981,23.7515528 1.68322981,23.6956522 C1.72670807,22.2795031 1.88819876,20.7329193 3.33540373,20.2173913 C6.42857143,19.4223602 10.6678828,15.8960433 10.7734728,15.8277204 C11.1523548,15.5606396 11.2455225,15.0389005 10.9784418,14.6600185 C10.711361,14.2811365 10.1896219,14.1879688 9.8107399,14.4550495 C9.78589518,14.4736831 5.70186335,17.8881988 2.88819876,18.6024845 C2.86335404,18.6086957 2.8447205,18.6149068 2.82608696,18.621118 C0.130434783,19.5465839 0.049689441,22.4223602 0.0124223602,23.6459627 C0.0124223602,23.7018634 0.0124223602,23.7515528 0.00621118012,23.8012422 C0.00621118012,23.8074534 0.00621118012,23.8136646 0.00621118012,23.8198758 C4.14598911e-16,24.1428571 -0.00621118012,25.8012422 0.322981366,26.6335404 C0.385093168,26.7950311 0.49689441,26.931677 0.645962733,27.0248447 C0.832298137,27.1490683 5.29813665,29.9937888 12.7701863,29.9937888 C20.242236,29.9937888 24.7080745,27.1428571 24.8944099,27.0248447 C25.0372671,26.931677 25.1552795,26.7950311 25.2173913,26.6335404 C25.5279503,25.8074534 25.5217391,24.1490683 25.515528,23.826087 Z" id="Path"></path>
            </g>
        </g>
    </g>
</svg>