<?xml version="1.0" encoding="UTF-8"?>
<svg width="35px" height="40px" viewBox="0 0 35 40" version="1.1" xmlns="http://www.w3.org/2000/svg" xmlns:xlink="http://www.w3.org/1999/xlink">
    <title>Group@</title>
    <g id="Design-Task" stroke="none" stroke-width="1" fill="none" fill-rule="evenodd">
        <g id="Group" transform="translate(0.544970, 2.000000)">
            <g id="shopping-bag" transform="translate(0.000000, 6.134615)" fill="#000000" fill-rule="nonzero">
                <path d="M24.8570552,26.7969325 L23.0820041,6.80858896 C23.0439673,6.36482618 22.6699387,6.02883436 22.2325153,6.02883436 L18.5809816,6.02883436 C18.5302658,2.69427403 15.8042945,0 12.4570552,0 C9.10981595,0 6.38384458,2.69427403 6.33312883,6.02883436 L2.68159509,6.02883436 C2.23783231,6.02883436 1.87014315,6.36482618 1.83210634,6.80858896 L0.0570552147,26.7969325 C0.0570552147,26.8222904 0.0507157464,26.8476483 0.0507157464,26.8730061 C0.0507157464,29.1488753 2.13640082,31 4.70388548,31 L20.2102249,31 C22.7777096,31 24.8633947,29.1488753 24.8633947,26.8730061 C24.8633947,26.8476483 24.8633947,26.8222904 24.8570552,26.7969325 Z M12.4570552,1.71165644 C14.8597137,1.71165644 16.8186094,3.63885481 16.8693252,6.02883436 L8.04478528,6.02883436 C8.09550102,3.63885481 10.0543967,1.71165644 12.4570552,1.71165644 Z M20.2102249,29.2883436 L4.70388548,29.2883436 C3.09366053,29.2883436 1.78773006,28.2233129 1.76237219,26.9110429 L3.46134969,7.74683027 L6.32678937,7.74683027 L6.32678937,10.3460123 C6.32678937,10.8214724 6.70715746,11.2018405 7.18261759,11.2018405 C7.65807771,11.2018405 8.03844581,10.8214724 8.03844581,10.3460123 L8.03844581,7.74683027 L16.8693252,7.74683027 L16.8693252,10.3460123 C16.8693252,10.8214724 17.2496933,11.2018405 17.7251534,11.2018405 C18.2006135,11.2018405 18.5809816,10.8214724 18.5809816,10.3460123 L18.5809816,7.74683027 L21.4464213,7.74683027 L23.1517382,26.9110429 C23.1263804,28.2233129 21.8141104,29.2883436 20.2102249,29.2883436 Z" id="Shape"></path>
            </g>
            <g id="Qty-Badge" transform="translate(14.455030, 0.000000)">
                <rect id="Rectangle" stroke="#FFFFFF" stroke-width="2" fill="#000000" x="-1" y="-1" width="20" height="20" rx="10"></rect>
                <text id="2" font-family="Rubik-Regular, Rubik" font-size="11" font-weight="normal" fill="#FFFFFF">
                    <tspan x="5.788" y="13">2</tspan>
                </text>
            </g>
        </g>
    </g>
</svg>