<?xml version="1.0" encoding="UTF-8"?>
<svg width="40px" height="37px" viewBox="0 0 40 37" version="1.1" xmlns="http://www.w3.org/2000/svg" xmlns:xlink="http://www.w3.org/1999/xlink">
    <title>hat@</title>
    <g id="Design-Task" stroke="none" stroke-width="1" fill="none" fill-rule="evenodd">
        <g id="hat" fill="#000000" fill-rule="nonzero">
            <path d="M39.8751079,19.0120193 C38.6662044,16.6096261 36.4564439,14.8419138 33.8880905,14.0985415 L31.0419252,3.98013733 C30.1427085,0.78305391 26.370686,-1.22572065 23.2498338,0.841824967 C21.2756197,2.14977214 18.7241412,2.14977214 16.7498489,0.841824967 C13.6251686,-1.22812739 9.85603671,0.786780476 8.95783566,3.98021497 L6.1117485,14.0985415 C3.54339507,14.8419915 1.33363455,16.6097038 0.124809225,19.0120193 C-0.263783626,19.7843502 0.301996315,20.6972813 1.1729318,20.6972813 L6.68096593,20.6972813 L8.3469777,23.4565708 C10.3572855,26.7861026 13.8114182,29.2316618 17.9637523,29.8585013 C17.3569569,30.8729037 16.484537,32.4403907 16.484537,33.5065769 C16.484537,35.4329012 18.0615646,37 19.9999195,37 C21.9382744,37 23.515302,35.4328236 23.515302,33.5065769 C23.515302,32.4229225 22.6130384,30.8231386 22.0360867,29.8585013 C26.1888114,29.2315065 29.6427878,26.7857144 31.6528613,23.4565708 L33.318873,20.6972813 L38.8269072,20.6972813 C39.6958895,20.6972813 40.264482,19.7860582 39.8751079,19.0120193 Z M11.2149398,4.60713213 C11.6992356,2.88538082 13.7071215,1.62502501 15.44993,2.77963949 C16.8321143,3.69528791 18.4157825,4.15311212 19.9999976,4.15303449 C21.5838221,4.15295685 23.1681934,3.69513264 24.5499871,2.77963949 C26.2856862,1.62952794 28.2986503,2.87816059 28.7849773,4.60713213 L30.035365,9.05246002 L9.96455208,9.05246002 L11.2149398,4.60713213 Z M9.30947547,11.3814864 L30.6903635,11.3814864 L31.3463776,13.7136959 C31.2858309,13.7125313 31.2253623,13.7104351 31.1646593,13.7104351 L8.83510157,13.7104351 C8.77439859,13.7104351 8.7140081,13.7125313 8.65338324,13.7136959 L9.30947547,11.3814864 Z M19.9999195,34.6711289 C19.3537491,34.6711289 18.8281253,34.1487109 18.8281253,33.508052 C18.8376566,33.1520873 19.3250773,32.1373743 19.9999195,31.0074483 C20.6745273,32.1369861 21.1617137,33.1512333 21.1717137,33.5076638 C21.1712449,34.1491767 20.6456992,34.6711289 19.9999195,34.6711289 Z M29.6431784,22.2583244 C27.62248,25.6051692 23.9273323,27.6842051 19.9998414,27.6842051 C16.0723504,27.6842051 12.3772027,25.6051692 10.3565043,22.2583244 L9.41400648,20.6972813 L30.5857544,20.6972813 L29.6431784,22.2583244 Z M3.40714538,18.3683326 C4.78456407,16.91404 6.75580951,16.0393838 8.83510157,16.0393838 L31.1646593,16.0393838 C33.2438732,16.0393838 35.2151968,16.91404 36.5926155,18.3683326 L3.40714538,18.3683326 Z" id="Shape"></path>
        </g>
    </g>
</svg>