<?xml version="1.0" encoding="UTF-8"?>
<svg width="34px" height="31px" viewBox="0 0 34 31" version="1.1" xmlns="http://www.w3.org/2000/svg" xmlns:xlink="http://www.w3.org/1999/xlink">
    <title>Wishlist@</title>
    <g id="Design-Task" stroke="none" stroke-width="1" fill="none" fill-rule="evenodd">
        <g id="Wishlist" transform="translate(0.000000, 0.384615)" fill="#000000" fill-rule="nonzero">
            <g id="heart">
                <path d="M16.7307692,29.9681332 C16.2543957,29.9681332 15.7951267,29.7944079 15.4372083,29.478824 C14.085441,28.2889597 12.782179,27.1707957 11.6323471,26.1844675 L11.6264754,26.1793277 C8.25535406,23.2874178 5.34426766,20.7899876 3.31878662,18.3298211 C1.05460829,15.5795128 0,12.9718339 0,10.1230983 C0,7.35531454 0.942790675,4.80186059 2.65451875,2.93277138 C4.38667006,1.04158099 6.76343183,2.84217094e-14 9.34774546,2.84217094e-14 C11.2792793,2.84217094e-14 13.0481926,0.614720395 14.605214,1.82694283 C15.3910006,2.43883632 16.1032633,3.18770559 16.7307692,4.06121507 C17.3585305,3.18770559 18.0705379,2.43883632 18.8565797,1.82694283 C20.4136012,0.614720395 22.1825145,2.84217094e-14 24.1140483,2.84217094e-14 C26.6981066,2.84217094e-14 29.0751237,1.04158099 30.8072751,2.93277138 C32.5190031,4.80186059 33.4615385,7.35531454 33.4615385,10.1230983 C33.4615385,12.9718339 32.4071855,15.5795128 30.1430071,18.3295641 C28.1175261,20.7899876 25.206695,23.2871608 21.8360843,26.1788138 C20.68421,27.1666838 19.3789056,28.2866468 18.0240748,29.479338 C17.6664118,29.7944079 17.2068874,29.9681332 16.7307692,29.9681332 L16.7307692,29.9681332 Z M9.34774546,1.97317026 C7.31741393,1.97317026 5.45225582,2.78885691 4.09538266,4.27014803 C2.71834153,5.7737973 1.95987113,7.85233349 1.95987113,10.1230983 C1.95987113,12.5190172 2.84445546,14.661801 4.82781338,17.0708264 C6.74479558,19.3994141 9.59614385,21.8454461 12.8975707,24.6777343 L12.9036977,24.6828742 C14.0578695,25.6730572 15.3662374,26.7955901 16.727961,27.994192 C18.097854,26.7932771 19.4082642,25.6689453 20.5647336,24.6772204 C23.8659052,21.8449322 26.7169982,19.3994141 28.6339804,17.0708264 C30.617083,14.661801 31.5016673,12.5190172 31.5016673,10.1230983 C31.5016673,7.85233349 30.7431969,5.7737973 29.3661558,4.27014803 C28.0095379,2.78885691 26.1441245,1.97317026 24.1140483,1.97317026 C22.6267213,1.97317026 21.2611682,2.44911592 20.0554276,3.38764395 C18.9809066,4.22440382 18.2323925,5.28217513 17.7935468,6.02230671 C17.5678693,6.40290914 17.1706361,6.63008842 16.7307692,6.63008842 C16.2909023,6.63008842 15.8936691,6.40290914 15.6679916,6.02230671 C15.2294012,5.28217513 14.4808872,4.22440382 13.4061109,3.38764395 C12.2003702,2.44911592 10.8348171,1.97317026 9.34774546,1.97317026 Z" id="Shape"></path>
            </g>
        </g>
    </g>
</svg>